<svg width="10" height="12" viewBox="0 0 10 12" fill="none" xmlns="http://www.w3.org/2000/svg">
<path d="M0.602147 0.110932C0.783865 0.0267175 0.987876 -0.0107474 1.19173 0.00265949C1.39558 0.0160664 1.59137 0.0798257 1.75756 0.186921L9.53435 5.18619C9.67837 5.27868 9.79576 5.40079 9.87675 5.54235C9.95775 5.68391 10 5.84084 10 6.00007C10 6.1593 9.95775 6.31622 9.87675 6.45779C9.79576 6.59935 9.67837 6.72146 9.53435 6.81395L1.75756 11.8132C1.59143 11.9202 1.39573 11.9839 1.19199 11.9973C0.988239 12.0107 0.784328 11.9733 0.602673 11.8892C0.421018 11.8051 0.268652 11.6775 0.162327 11.5205C0.0560021 11.3635 -0.000165163 11.1832 6.09748e-07 10.9993V1.0008C-0.000213332 0.816994 0.0558758 0.63669 0.162105 0.479701C0.268334 0.322713 0.420591 0.195116 0.602147 0.110932Z" fill="white"/>
</svg>
